<?xml version="1.0" encoding="UTF-8"?><svg id="Layer_2" xmlns="http://www.w3.org/2000/svg" viewBox="0 0 890.8 92.58"><defs><style>.cls-1{fill:#4b84c5;}.cls-1,.cls-2{stroke-width:0px;}.cls-2{fill:#fff;}</style></defs><g id="Layer_1-2"><path class="cls-2" d="m0,85.15V3.94h36.97c16.61,0,24.91,7.26,24.91,21.78,0,9.82-6.46,17.95-19.39,24.4l25.76,35.15h-18.99l-24.74-35.43v-6.88c14.41-2.46,21.61-8.06,21.61-16.78,0-5.99-3.38-8.99-10.12-8.99H15.36v67.96H0Z"/><path class="cls-2" d="m131.03,3.94v12.97h-40.72v20.47h38.79v13.48h-38.96v21.33h41.69v13.08h-56.47V3.94h55.68Z"/><path class="cls-2" d="m160.83,3.94v81.32h-15.07V3.94h15.07Z"/><path class="cls-2" d="m186.75,84.7h-6.37L217.17,3.37h7.11l36.96,81.32h-7.11l-12.06-27.3h-34.18l2.33-5.12h29.63l-19.51-44.25-33.61,76.66Z"/><path class="cls-2" d="m272.34,53.31V3.37h5.97v49.93c0,17.9,8.91,26.84,26.73,26.84s26.73-8.95,26.73-26.84V3.37h5.97v49.93c0,21.31-10.9,31.96-32.7,31.96s-32.7-10.65-32.7-31.96Z"/><path class="cls-2" d="m408.54,3.37v5.12h-27.87v76.21h-5.97V8.49h-27.3V3.37h61.14Z"/><path class="cls-2" d="m511.76,84.7V3.37h5.97l36.68,74.33L588.82,3.37h5.4v81.32h-5.4V14.35l-32.3,70.35h-4.89l-34.46-70.92v70.92h-5.4Z"/><path class="cls-2" d="m611.68,84.7h-6.37L642.11,3.37h7.11l36.97,81.32h-7.11l-12.06-27.3h-34.18l2.33-5.12h29.63l-19.51-44.25-33.61,76.66Z"/><path class="cls-2" d="m741.34,3.37v5.12h-27.87v76.21h-5.97V8.49h-27.3V3.37h61.14Z"/><path class="cls-2" d="m804.41,3.37v5.12h-47.43v32.42h45.5v5.12h-45.5v33.55h48.23v5.12h-54.2V3.37h53.4Z"/><path class="cls-2" d="m821.99,84.7V3.37h29c26.54,0,39.81,12.82,39.81,38.44,0,28.59-13.46,42.88-40.38,42.88h-28.43Zm28.43-5.12c22.56,0,33.84-12.59,33.84-37.76,0-22.22-11.28-33.33-33.84-33.33h-22.46v71.09h22.46Z"/><polygon class="cls-1" points="488.71 61.21 488.49 56.87 498.15 56.38 498.15 45.12 489.02 44.77 489.19 40.43 502.5 40.95 502.5 60.51 488.71 61.21"/><path class="cls-1" d="m477.91,49.7c0,4.13-1.04,8.25-3,11.9l-3.82-2.06c1.62-3.03,2.48-6.43,2.48-9.84,0-7.72-4.23-14.46-10.5-18.04-1.36-.78-2.82-1.42-4.36-1.87-1.88-.56-3.87-.87-5.92-.87s-4.07.3-5.95.88c-1.53.45-3,1.09-4.36,1.87-6.24,3.59-10.45,10.32-10.45,18.02,0,2.87.56,5.65,1.71,8.25l-3.98,1.74c-1.38-3.16-2.07-6.51-2.07-9.99,0-10.21,6.11-19.01,14.87-22.93,1.38-.62,2.82-1.11,4.33-1.48,1.9-.46,3.88-.71,5.91-.71s3.98.23,5.86.69c1.51.35,2.95.85,4.33,1.46,8.79,3.92,14.92,12.74,14.92,22.96Z"/><path class="cls-1" d="m445.3,11.23c.58-.12,1.16-.2,1.74-.29l-.04,4.42c-.29.04-.58.09-.87.14-1.16.23-2.3.51-3.42.85-2.63.8-5.15,1.9-7.51,3.3-4.47,2.61-8.38,6.27-11.31,10.6-2.2,3.27-3.81,6.85-4.81,10.65-.74,2.84-1.11,5.79-1.11,8.79,0,2.23.22,4.49.64,6.7.81,4.08,2.32,7.96,4.52,11.51,2.52,4.11,5.92,7.7,9.84,10.39l-2.46,3.59c-4.42-3.04-8.25-7.09-11.09-11.71-2.46-4-4.17-8.35-5.07-12.97-.48-2.49-.72-5.01-.72-7.51,0-3.36.43-6.69,1.26-9.89,1.11-4.27,2.94-8.31,5.41-11.99,3.29-4.86,7.67-8.98,12.7-11.91,3.04-1.81,6.33-3.17,9.77-4.08.84-.23,1.68-.42,2.53-.59Z"/><path class="cls-1" d="m491.97,49.7c0,3.36-.42,6.67-1.24,9.89l-.48,1.62c-1.17,3.84-2.94,7.46-5.24,10.77-3.07,4.47-7.01,8.19-11.67,11.06l-2.27-3.71c4.15-2.53,7.63-5.85,10.36-9.81,2.35-3.37,4.04-7.08,5.07-11.03l.28-1.04c.56-2.52.85-5.12.85-7.74,0-2.23-.22-4.49-.64-6.7-.75-3.87-2.14-7.53-4.15-10.9-2.61-4.49-6.27-8.38-10.58-11.29-2.94-1.98-6.11-3.49-9.45-4.47-.41-.12-.8-.23-1.2-.33l-1.16-.29c-.64-.14-1.27-.28-1.93-.38l-.06-4.4c1.43.2,2.84.49,4.23.85h.03s1.59.46,1.59.46c3.68,1.11,7.17,2.78,10.36,4.97,4.86,3.26,8.98,7.64,11.91,12.68,2.24,3.78,3.82,7.92,4.68,12.28.48,2.49.71,5.02.71,7.53Z"/><polygon class="cls-1" points="420.5 30.51 411.47 20.75 425.32 6.91 435.55 16.17 432.63 19.39 425.46 12.9 417.5 20.86 423.69 27.56 420.5 30.51"/><polygon class="cls-1" points="416.41 58.96 403.11 58.46 403.11 38.89 417.3 38.16 417.47 42.5 417.07 42.52 407.46 43.02 407.46 54.28 416.57 54.62 416.41 58.96"/><path class="cls-1" d="m480.19,92.58l-28.54-29.58-27.73,28.08-14-14,41.76-40.78,42.51,42.27-14.01,14.01Zm-28.5-35.79l28.56,29.6,7.8-7.8-36.39-36.18-35.56,34.72,7.8,7.8,27.79-28.14Z"/><polygon class="cls-1" points="486.33 32.43 483.11 29.52 489.59 22.35 481.64 14.39 474.94 20.59 471.99 17.4 481.75 8.36 495.58 22.2 486.33 32.43"/><rect class="cls-1" x="444.93" y="79.14" width="13.44" height="13.44"/><path class="cls-1" d="m462.99,26.74l-.19-10.41-.09-4.53-.22-11.8h-19.57l-.16,11.83-.06,4.53-.14,10.41-.07,4.91c1.36-.78,2.82-1.42,4.36-1.87l.04-4.52.1-9.93.04-4.42.07-6.6h11.26l.09,6.59.06,4.4.14,9.94.06,4.52c1.53.45,3,1.09,4.36,1.87l-.09-4.92Z"/></g></svg>