<?xml version="1.0" encoding="UTF-8"?><svg id="Layer_2" xmlns="http://www.w3.org/2000/svg" viewBox="0 0 707.06 658.69"><defs><style>.cls-1{fill:#1d8eff;}</style></defs><g id="Layer_1-2"><g><path class="cls-1" d="M620.07,434.91l87-4.39v-139.2l-82.56-3.24c-5.55-22.93-13.96-44.92-25.07-65.53l58.38-64.58-98.33-98.48-60.75,56.25c-19.87-12.28-41.14-21.86-63.39-28.61l-11.33-3.19-1.55-83.94h-139.24l-1.13,84.14c-20.81,5.51-40.81,13.33-59.61,23.44l-64.54-58.46L59.49,147.59l56.13,60.72c-12.27,20.06-21.91,41.5-28.76,63.92L0,276.71v139.2l82.55,3.13c5.87,24.4,14.99,47.71,27.18,69.6l-61.27,59.84,99.62,99.61,197.28-199.8,203.03,210.41,99.64-99.64-58.21-57.88c12.9-20.55,23.02-42.58,30.1-65.72l.16-.53Zm56.1-33.77l-48.44,2.45c2.94-16.42,4.44-33.15,4.44-50.02,0-11.41-.68-22.9-2.06-34.34l46.06,1.81v80.11Zm-60.95-242.12l-32.59,36.05c-16.01-23.17-35.62-43.95-57.9-61.28l33.91-31.41,56.57,56.65Zm-122.92,245.18l-146.72-145.89-135.21,132.04c-3.06-11.93-4.59-24.24-4.59-36.78,0-54.79,29.97-102.68,74.36-128.22,9.68-5.56,20.08-10.09,31-13.29,13.39-4.12,27.6-6.28,42.33-6.28s28.73,2.16,42.12,6.18c10.92,3.19,21.32,7.72,31,13.29,44.59,25.44,74.67,73.43,74.67,128.32,0,17.24-3.07,34.42-8.96,50.64ZM313,30.9h80.13l.62,46.86,.41,31.31,1.03,70.75c-13.39-3.3-27.29-4.94-41.71-4.94s-28.53,1.75-42.02,5.05l.72-70.65,.31-31.41,.51-46.96Zm-153.99,60.87l36.03,32.63c-23.14,16.01-43.93,35.63-61.37,57.92l-31.32-33.89,56.67-56.66ZM30.9,306.04l48.4-2.52c-2.97,16.41-4.52,33.17-4.52,50.04,0,11.43,.73,22.9,2.14,34.33l-46.03-1.75v-80.11Zm79.32,95.2c-2.99-15.76-4.53-31.82-4.53-47.68,0-21.32,2.68-42.33,7.93-62.51,7.11-27.09,18.54-52.52,34.19-75.8,20.8-30.79,48.61-56.85,80.43-75.39,16.79-9.99,34.71-17.82,53.45-23.48l-1.03,74.05c-62.31,27.91-105.77,90.53-105.77,163.14,0,21.05,3.6,41.5,10.71,60.98l-52.84,51.61c-10.52-20.46-18.04-42.24-22.54-64.9Zm37.72,203l-55.52-55.52,34.22-33.42c15.13,21.17,33.26,40.28,53.48,56.35l-32.18,32.59Zm54.05-54.74c-20.31-15.63-38.33-34.71-52.95-56.08l196.35-191.75,204.32,203.16c-15.7,20.46-34.38,38.2-55.85,52.82l-148.24-153.63-143.63,145.47Zm346.81,65.09l-33.22-34.43c21.28-15.14,40.11-33.01,56.2-53.39l32.51,32.33-55.49,55.49Zm46.41-205.93l-1.96,7.41c-5.74,22.08-14.42,43.07-25.95,62.68l-51.28-51c10.57-23.25,16.16-48.73,16.16-74.2,0-72.71-43.67-135.43-106.18-163.34l-1.34-74.05c23.79,7,46.35,17.71,67.25,31.82,30.69,20.7,56.75,48.4,75.29,80.33,14.32,24,24.2,50.05,29.56,77.55,2.99,15.76,4.53,31.82,4.53,47.68,0,18.64-2.06,37.18-6.08,55.1Z"/><rect class="cls-1" x="297.53" y="563.04" width="95.65" height="95.65"/></g></g></svg>