<?xml version="1.0" encoding="UTF-8"?><svg id="Layer_2" xmlns="http://www.w3.org/2000/svg" viewBox="0 0 1000 200"><defs><style>.cls-1{fill:#0d2437;}.cls-2{fill:#4b84c5;}.cls-3{fill:#fff;}</style></defs><g id="Layer_1-2"><rect class="cls-1" width="1000" height="200"/><g><g><g><path class="cls-3" d="M54.6,118.41V37.2h36.97c16.61,0,24.91,7.26,24.91,21.78,0,9.82-6.46,17.95-19.39,24.4l25.76,35.15h-18.99l-24.74-35.43v-6.88c14.41-2.46,21.61-8.06,21.61-16.78,0-5.99-3.38-8.99-10.12-8.99h-20.64V118.41h-15.36Z"/><path class="cls-3" d="M185.63,37.2v12.97h-40.72v20.47h38.79v13.48h-38.96v21.33h41.69v13.08h-56.47V37.2h55.68Z"/><path class="cls-3" d="M215.43,37.2V118.53h-15.07V37.2h15.07Z"/></g><g><g><path class="cls-3" d="M241.35,117.96h-6.37l36.8-81.32h7.11l36.96,81.32h-7.11l-12.06-27.3h-34.18l2.33-5.12h29.63l-19.51-44.25-33.61,76.66Z"/><path class="cls-3" d="M326.94,86.56V36.63h5.97v49.93c0,17.9,8.91,26.84,26.73,26.84s26.73-8.95,26.73-26.84V36.63h5.97v49.93c0,21.31-10.9,31.96-32.7,31.96s-32.7-10.65-32.7-31.96Z"/><path class="cls-3" d="M463.14,36.63v5.12h-27.87V117.96h-5.97V41.75h-27.3v-5.12h61.14Z"/><path class="cls-3" d="M566.36,117.96V36.63h5.97l36.68,74.33,34.41-74.33h5.4V117.96h-5.4V47.61l-32.3,70.35h-4.89l-34.46-70.92V117.96h-5.4Z"/><path class="cls-3" d="M666.28,117.96h-6.37l36.8-81.32h7.11l36.97,81.32h-7.11l-12.06-27.3h-34.18l2.33-5.12h29.63l-19.51-44.25-33.61,76.66Z"/><path class="cls-3" d="M795.94,36.63v5.12h-27.87V117.96h-5.97V41.75h-27.3v-5.12h61.14Z"/><path class="cls-3" d="M859.01,36.63v5.12h-47.43v32.42h45.5v5.12h-45.5v33.55h48.23v5.12h-54.2V36.63h53.4Z"/><path class="cls-3" d="M876.59,117.96V36.63h29c26.54,0,39.81,12.82,39.81,38.44,0,28.59-13.46,42.88-40.38,42.88h-28.43Zm28.43-5.12c22.56,0,33.84-12.59,33.84-37.76,0-22.22-11.28-33.33-33.84-33.33h-22.46V112.84h22.46Z"/></g><g><polygon class="cls-2" points="543.31 94.47 543.09 90.13 552.75 89.64 552.75 78.38 543.62 78.02 543.79 73.68 557.1 74.21 557.1 93.77 543.31 94.47"/><g><path class="cls-2" d="M532.51,82.95c0,4.13-1.04,8.25-3,11.9l-3.82-2.06c1.62-3.03,2.48-6.43,2.48-9.84,0-7.72-4.23-14.46-10.5-18.04-1.36-.78-2.82-1.42-4.36-1.87-1.88-.56-3.87-.87-5.92-.87s-4.07,.3-5.95,.88c-1.53,.45-3,1.09-4.36,1.87-6.24,3.59-10.45,10.32-10.45,18.02,0,2.87,.56,5.65,1.71,8.25l-3.98,1.74c-1.38-3.16-2.07-6.51-2.07-9.99,0-10.21,6.11-19.01,14.87-22.93,1.38-.62,2.82-1.11,4.33-1.48,1.9-.46,3.88-.71,5.91-.71s3.98,.23,5.86,.69c1.51,.35,2.95,.85,4.33,1.46,8.79,3.92,14.92,12.74,14.92,22.96Z"/><g><path class="cls-2" d="M499.9,44.49c.58-.12,1.16-.2,1.74-.29l-.04,4.42c-.29,.04-.58,.09-.87,.14-1.16,.23-2.3,.51-3.42,.85-2.63,.8-5.15,1.9-7.51,3.3-4.47,2.61-8.38,6.27-11.31,10.6-2.2,3.27-3.81,6.85-4.81,10.65-.74,2.84-1.11,5.79-1.11,8.79,0,2.23,.22,4.49,.64,6.7,.81,4.08,2.32,7.96,4.52,11.51,2.52,4.11,5.92,7.7,9.84,10.39l-2.46,3.59c-4.42-3.04-8.25-7.09-11.09-11.71-2.46-4-4.17-8.35-5.07-12.97-.48-2.49-.72-5.01-.72-7.51,0-3.36,.43-6.69,1.26-9.89,1.11-4.27,2.94-8.31,5.41-11.99,3.29-4.86,7.67-8.98,12.7-11.91,3.04-1.81,6.33-3.17,9.77-4.08,.84-.23,1.68-.42,2.53-.59Z"/><path class="cls-2" d="M546.57,82.95c0,3.36-.42,6.67-1.24,9.89l-.48,1.62c-1.17,3.84-2.94,7.46-5.24,10.77-3.07,4.47-7.01,8.19-11.67,11.06l-2.27-3.71c4.15-2.53,7.63-5.85,10.36-9.81,2.35-3.37,4.04-7.08,5.07-11.03l.28-1.04c.56-2.52,.85-5.12,.85-7.74,0-2.23-.22-4.49-.64-6.7-.75-3.87-2.14-7.53-4.15-10.9-2.61-4.49-6.27-8.38-10.58-11.29-2.94-1.98-6.11-3.49-9.45-4.47-.41-.12-.8-.23-1.2-.33l-1.16-.29c-.64-.14-1.27-.28-1.93-.38l-.06-4.4c1.43,.2,2.84,.49,4.23,.85h.03s1.59,.46,1.59,.46c3.68,1.11,7.17,2.78,10.36,4.97,4.86,3.26,8.98,7.64,11.91,12.68,2.24,3.78,3.82,7.92,4.68,12.28,.48,2.49,.71,5.02,.71,7.53Z"/></g><polygon class="cls-2" points="475.1 63.77 466.07 54 479.92 40.16 490.15 49.43 487.23 52.65 480.06 46.16 472.1 54.12 478.29 60.82 475.1 63.77"/><polygon class="cls-2" points="471.01 92.22 457.71 91.72 457.71 72.15 471.9 71.42 472.07 75.76 471.67 75.78 462.06 76.28 462.06 87.54 471.17 87.88 471.01 92.22"/><path class="cls-2" d="M534.79,125.84l-28.54-29.58-27.73,28.08-14-14,41.76-40.78,42.51,42.27-14.01,14.01Zm-28.5-35.79l28.56,29.6,7.8-7.8-36.39-36.18-35.56,34.72,7.8,7.8,27.79-28.14Z"/><polygon class="cls-2" points="540.93 65.69 537.71 62.78 544.19 55.61 536.24 47.65 529.54 53.85 526.59 50.66 536.35 41.62 550.18 55.46 540.93 65.69"/></g></g></g><rect class="cls-2" x="499.53" y="112.4" width="13.44" height="13.44"/><path class="cls-2" d="M517.59,60l-.19-10.41-.09-4.53-.22-11.8h-19.57l-.16,11.83-.06,4.53-.14,10.41-.07,4.91c1.36-.78,2.82-1.42,4.36-1.87l.04-4.52,.1-9.93,.04-4.42,.07-6.6h11.26l.09,6.59,.06,4.4,.14,9.94,.06,4.52c1.53,.45,3,1.09,4.36,1.87l-.09-4.92Z"/></g><g><path class="cls-3" d="M63.14,140.01c6.43,0,8.31,4.76,8.31,13.36s-2.11,13.36-8.54,13.36-8.31-4.73-8.31-13.36,2.07-13.36,8.54-13.36Zm-.11,24.37c3.91,0,4.93-3.8,4.93-11s-1.02-11-4.89-11-4.89,3.8-4.89,11,.94,11,4.85,11Z"/><path class="cls-3" d="M83.82,142.73h-.38l.68,9.1v14.72h-3.27v-26.26h4.82l10.01,23.82h.38l-.68-9.1v-14.72h3.31v26.26h-4.85l-10.01-23.82Z"/><path class="cls-3" d="M112.14,164.38h9.1v2.17h-12.53v-26.26h3.42v24.09Z"/><path class="cls-3" d="M132.37,154.39h.3l1.13-4.07,3.87-10.03h3.54l-7.03,16.11v10.15h-3.46v-10.07l-7.03-16.19h3.72l3.88,10.03,1.09,4.07Z"/><path class="cls-3" d="M156.1,140.28h15.69v2.17h-6.09v24.09h-3.46v-24.09h-6.13v-2.17Z"/><path class="cls-3" d="M186.57,140.28l6.7,26.26h-3.8l-1.39-6.31h-7.67l-1.39,6.31h-3.61l6.7-26.26h4.48Zm-5.72,17.78h6.73l-2.78-12.47-.41-3.22h-.3l-.45,3.22-2.78,12.47Z"/><path class="cls-3" d="M204.73,164.38h9.1v2.17h-12.53v-26.26h3.42v24.09Z"/><path class="cls-3" d="M227.29,154.23h-2.33v12.32h-3.42v-26.26h3.42v11.74h2.52l6.89-11.74h3.76l-8.5,12.78,8.88,13.48h-3.8l-7.41-12.32Z"/><path class="cls-3" d="M253.73,140.28h15.69v2.17h-6.09v24.09h-3.46v-24.09h-6.13v-2.17Z"/><path class="cls-3" d="M283.48,140.01c6.43,0,8.31,4.76,8.31,13.36s-2.11,13.36-8.54,13.36-8.31-4.73-8.31-13.36,2.07-13.36,8.54-13.36Zm-.11,24.37c3.91,0,4.93-3.8,4.93-11s-1.02-11-4.89-11-4.89,3.8-4.89,11,.94,11,4.85,11Z"/><path class="cls-3" d="M327.14,148.57c0,5.38-3.05,8.25-8.05,8.25h-4.1v9.72h-3.42v-26.26h7.68c4.85,0,7.9,2.94,7.9,8.29Zm-9.26-6.12h-2.9v12.2h3.01c3.76,0,5.61-1.98,5.61-6.16s-1.81-6.04-5.72-6.04Z"/><path class="cls-3" d="M348.31,142.45h-9.9v9.45h8.92v2.21h-8.92v10.27h9.9v2.17h-13.32v-26.26h13.32v2.17Z"/><path class="cls-3" d="M364.41,140.01c6.43,0,8.31,4.76,8.31,13.36s-2.11,13.36-8.54,13.36-8.31-4.73-8.31-13.36,2.07-13.36,8.54-13.36Zm-.11,24.37c3.91,0,4.93-3.8,4.93-11s-1.02-11-4.89-11-4.89,3.8-4.89,11,.94,11,4.85,11Z"/><path class="cls-3" d="M397.69,148.57c0,5.38-3.05,8.25-8.05,8.25h-4.1v9.72h-3.42v-26.26h7.68c4.85,0,7.9,2.94,7.9,8.29Zm-9.26-6.12h-2.9v12.2h3.01c3.76,0,5.61-1.98,5.61-6.16s-1.81-6.04-5.72-6.04Z"/><path class="cls-3" d="M409.53,164.38h9.1v2.17h-12.53v-26.26h3.42v24.09Z"/><path class="cls-3" d="M439.66,142.45h-9.9v9.45h8.92v2.21h-8.92v10.27h9.9v2.17h-13.32v-26.26h13.32v2.17Z"/><path class="cls-3" d="M476.33,166.55l-4.18-20.26-.41-3.91h-.3l-.45,3.91-4.18,20.26h-4.4l-6.21-26.26h3.8l4.1,20.92,.45,3.45h.3l.41-3.45,4.14-20.92h4.51l4.14,20.92,.41,3.45h.3l.45-3.45,4.1-20.92h3.65l-6.21,26.26h-4.44Z"/><path class="cls-3" d="M498.36,166.55h-3.42v-26.26h3.42v11.66h9.14v-11.66h3.46v26.26h-3.46v-12.43h-9.14v12.43Z"/><path class="cls-3" d="M528.83,140.01c6.43,0,8.31,4.76,8.31,13.36s-2.11,13.36-8.54,13.36-8.31-4.73-8.31-13.36,2.07-13.36,8.54-13.36Zm-.11,24.37c3.91,0,4.93-3.8,4.93-11s-1.02-11-4.89-11-4.89,3.8-4.89,11,.94,11,4.85,11Z"/><path class="cls-3" d="M574.9,166.55l-4.18-20.26-.41-3.91h-.3l-.45,3.91-4.18,20.26h-4.4l-6.21-26.26h3.8l4.1,20.92,.45,3.45h.3l.41-3.45,4.14-20.92h4.51l4.14,20.92,.41,3.45h.3l.45-3.45,4.1-20.92h3.65l-6.21,26.26h-4.44Z"/><path class="cls-3" d="M601.22,140.28l6.7,26.26h-3.8l-1.39-6.31h-7.67l-1.39,6.31h-3.61l6.7-26.26h4.48Zm-5.72,17.78h6.73l-2.78-12.47-.41-3.22h-.3l-.45,3.22-2.78,12.47Z"/><path class="cls-3" d="M618.93,142.73h-.38l.68,9.1v14.72h-3.27v-26.26h4.82l10.01,23.82h.38l-.68-9.1v-14.72h3.31v26.26h-4.85l-10.01-23.82Z"/><path class="cls-3" d="M641.27,140.28h15.69v2.17h-6.1v24.09h-3.46v-24.09h-6.13v-2.17Z"/><path class="cls-3" d="M672.33,140.28h15.69v2.17h-6.1v24.09h-3.46v-24.09h-6.13v-2.17Z"/><path class="cls-3" d="M702.08,140.01c6.43,0,8.31,4.76,8.31,13.36s-2.11,13.36-8.54,13.36-8.32-4.73-8.32-13.36,2.07-13.36,8.54-13.36Zm-.11,24.37c3.91,0,4.93-3.8,4.93-11s-1.02-11-4.89-11-4.89,3.8-4.89,11,.94,11,4.85,11Z"/><path class="cls-3" d="M727.61,140.28h15.69v2.17h-6.1v24.09h-3.46v-24.09h-6.13v-2.17Z"/><path class="cls-3" d="M758.08,140.28l6.7,26.26h-3.8l-1.39-6.31h-7.67l-1.39,6.31h-3.61l6.7-26.26h4.48Zm-5.72,17.78h6.73l-2.78-12.47-.42-3.22h-.3l-.45,3.22-2.78,12.47Z"/><path class="cls-3" d="M776.24,164.38h9.1v2.17h-12.53v-26.26h3.42v24.09Z"/><path class="cls-3" d="M798.8,154.23h-2.33v12.32h-3.42v-26.26h3.42v11.74h2.52l6.88-11.74h3.76l-8.5,12.78,8.88,13.48h-3.8l-7.41-12.32Z"/><path class="cls-3" d="M825.24,140.28h15.69v2.17h-6.1v24.09h-3.46v-24.09h-6.13v-2.17Z"/><path class="cls-3" d="M854.99,140.01c6.43,0,8.31,4.76,8.31,13.36s-2.11,13.36-8.54,13.36-8.32-4.73-8.32-13.36,2.07-13.36,8.54-13.36Zm-.11,24.37c3.91,0,4.93-3.8,4.93-11s-1.02-11-4.89-11-4.89,3.8-4.89,11,.94,11,4.85,11Z"/><path class="cls-3" d="M888.72,154.39h.3l1.13-4.07,3.88-10.03h3.54l-7.04,16.11v10.15h-3.46v-10.07l-7.04-16.19h3.72l3.88,10.03,1.09,4.07Z"/><path class="cls-3" d="M911.93,140.01c6.43,0,8.31,4.76,8.31,13.36s-2.11,13.36-8.54,13.36-8.32-4.73-8.32-13.36,2.07-13.36,8.54-13.36Zm-.11,24.37c3.91,0,4.93-3.8,4.93-11s-1.02-11-4.89-11-4.89,3.8-4.89,11,.94,11,4.85,11Z"/><path class="cls-3" d="M929.37,140.28h3.54v16.31c0,4.18,.64,7.79,4.55,7.79s4.59-3.6,4.59-7.79v-16.31h3.35v16.81c0,5.27-1.69,9.64-8.13,9.64s-7.9-4.38-7.9-9.64v-16.81Z"/></g></g></g></svg>